<?xml version="1.0" encoding="utf-8"?>
<!-- Generator: Adobe Illustrator 25.0.1, SVG Export Plug-In . SVG Version: 6.00 Build 0)  -->
<svg version="1.1" id="Layer_2_1_" xmlns="http://www.w3.org/2000/svg" xmlns:xlink="http://www.w3.org/1999/xlink" x="0px" y="0px"
	 viewBox="0 0 36.3 25.6" style="enable-background:new 0 0 36.3 25.6;" xml:space="preserve">
<style type="text/css">
	.st0{fill:none;stroke:#000000;stroke-miterlimit:10;}
</style>
<path class="st0" d="M20.4,17.5l-5.6,0.1c-0.3,0-0.6-0.2-0.7-0.4c-0.3-0.6-0.9-1.5-2.5-1.2c-2.2,0.4-7-0.4-7.8-0.8
	c-0.8-0.4-0.4-0.7,0.1-1.5c0.5-0.8,0.7-0.8,0.1-1.4c-0.6-0.5-2.1-1.9-2.1-2.3s0.2-1.2,0.2-2S3.5,4.6,3.5,4c0-0.6,1-0.2,1.5-0.6
	s1.6-1.6,2.8-1.5c1.2,0,1.5,0.2,2.7,1s2.1,1.6,2.7,3.1c0.6,1.5,2,4.8,5.2,4.8c3.1,0,3.7-0.2,3.9-0.4c0.2-0.3,0.9-1.4,1.3-1.5
	c0.5,0,3.6-0.4,3.9-0.4c0.3,0,0.9,0,1.9,0.5c1,0.5,4.1,2.1,4.3,2.3c0.2,0.2,0.5,0.1,0.2,0.8s-1.4,2.6-1.4,2.6s-0.4,0.9-1.6,0.6
	c-1.1-0.3-2.6-0.7-2.6-0.7s-0.4-0.2-0.4,0.6c0,0.8,0.3,2-1,2C25.7,17.4,20.4,17.5,20.4,17.5z"/>
</svg>
