<?xml version="1.0" encoding="utf-8"?>
<!-- Generator: Adobe Illustrator 25.0.1, SVG Export Plug-In . SVG Version: 6.00 Build 0)  -->
<svg version="1.0" id="Layer_1" xmlns="http://www.w3.org/2000/svg" xmlns:xlink="http://www.w3.org/1999/xlink" x="0px" y="0px"
	 viewBox="0 0 36.3 25.6" style="enable-background:new 0 0 36.3 25.6;" xml:space="preserve">
<style type="text/css">
	.st0{display:none;}
	.st1{display:inline;}
	.st2{fill:none;stroke:#000000;stroke-miterlimit:10;}
	.st3{display:inline;fill:#662D91;}
</style>
<g id="Layer_1_1_" class="st0">
	<g class="st1">
		<path d="M5.4,1C5.2,1.7,5.1,2.4,5,3.1c-0.4,2.4-0.7,4.8-1.1,7.3c-0.3,2-0.6,4.1-0.9,6.1c-0.1,0.7,0.2,1.3,0.3,1.9
			c0.1,0.5,0.3,1,0.5,1.5c0.3,0.9,0.1,1.6-0.6,2.2c-0.6,0.5-1.3,1.1-2,1.6C1.1,23.8,1.1,23.9,1,24c0.1,0.1,0.3,0.1,0.4,0.2
			c0.1,0,0.2,0,0.4,0c7,0,14,0,21,0c0.1,0,0.2,0,0.2,0.1c-0.3,0.1-0.6,0.3-1,0.5c0.3,0.2,0.5,0.3,0.8,0.4v0.1c-0.2,0-0.4,0-0.5,0
			c-6.6,0-13.2,0-19.8,0c-0.4,0-0.9,0-1.3-0.1c-0.6-0.1-1-0.3-1.2-0.9s0.1-1,0.6-1.3c0.6-0.5,1.2-1,1.9-1.5C3,21,3,20.8,2.9,20.2
			c-0.1-0.4-0.2-0.9-0.4-1.3C2,17.7,2,16.5,2.2,15.2c0.4-2.3,0.7-4.6,1.1-6.8C3.6,5.9,4,3.5,4.4,1c0-0.2,0.1-0.3,0.1-0.5
			C4.8,0,5.2-0.1,5.7,0.1c1,0.4,1.8,1.1,2.5,1.9C9,2.8,9.7,3.6,10.5,4.5c0.6,0.6,1.3,1.1,2.1,1.4c1.4,0.5,1.9,1.8,1.5,3.3
			C14,9.5,13.9,9.7,13.8,10c-0.3,0.8-0.2,1.2,0.5,1.7c0.9,0.7,1.8,1.3,2.7,2c0.7,0.5,1.4,0.9,2.1,1.5c0.6,0.5,0.6,1.4-0.1,1.8
			c-0.5,0.3-1,0.4-1.5,0.3c-2.4-0.3-4.7-0.6-7.1-1c-1.1-0.2-1.9,0.3-2.5,1.2c-0.1,0.2-0.2,0.4-0.4,0.6c0.4,0.1,0.8,0.2,1.2,0.2
			c1.2,0.1,2.5,0.2,3.7,0.2c5,0,9.9,0,14.9,0c0.8,0,1.1-0.2,1.2-1c0.2-1.2-0.3-2.2-1-3C26.8,13.8,26,13.3,25,13
			c-1.3-0.4-2.4-0.9-3.5-1.6c-1-0.6-1.5-1.8-1.1-3.1s0.9-2.6,1.4-3.8C22,4,22.3,3.4,22.7,2.9C22.9,2.4,23.4,2.1,24,2
			c0.6-0.1,1,0.1,1.4,0.5c1.2,1.2,2.3,2.5,3,4.1c1.1,2.4,2.4,4.7,3.5,7c1.4,2.7,2.7,5.4,4.1,8.1c0.3,0.6,0.3,1.2-0.1,1.7
			c-0.4,0.7-0.9,1.3-1.7,1.6c-0.5,0.2-1.1,0.3-1.6,0.3c-2.2,0-4.5,0-6.8,0.1c-0.2,0-0.4-0.1-0.4,0.2c0,0-0.1,0.1-0.2,0.1
			c-0.4,0-0.8,0-1.2,0c-0.1,0-0.2-0.1-0.2-0.2c0-0.4,0-0.8,0-1.2c0-0.1,0.2-0.2,0.3-0.2c0.4,0,0.7,0,1.1,0c0.1,0,0.2,0,0.2,0.1
			c0.1,0.4,0.4,0.2,0.6,0.2c2.2,0,4.4,0,6.6,0c1.2,0,2-0.6,2.5-1.6c0.1-0.1,0-0.3,0-0.5c-1.7-3.3-3.4-6.6-5-9.9c-1-2-2-4.1-3.1-6.1
			c-0.4-0.8-1.1-1.4-1.6-2.1c-0.2-0.3-0.4-0.5-0.7-0.7c-0.3-0.3-0.6-0.4-1-0.1c-0.2,0.2-0.4,0.4-0.5,0.7c-0.6,1.4-1.2,2.8-1.8,4.3
			c-0.1,0.3-0.2,0.5-0.2,0.8c-0.1,0.8,0.3,1.3,0.9,1.7c1,0.6,2.1,1.1,3.2,1.5c1.7,0.5,2.9,1.5,3.7,3.1c0.5,1,0.6,2,0.2,3.1
			c-0.3,0.8-0.9,1.2-1.8,1.2c-1,0-2,0-2.9,0c-4.5,0-9,0-13.5,0c-1.2,0-2.4-0.2-3.6-0.4c-0.2,0-0.5-0.2-0.7-0.3
			c-0.3-0.2-0.4-0.7-0.1-1.2c0.4-0.9,1-1.6,1.9-2.1c0.6-0.3,1.2-0.3,1.8-0.2c1.8,0.2,3.7,0.5,5.5,0.7c0.6,0.1,1.2,0.2,1.8,0.2
			c0.2,0,0.4,0,0.7-0.1c0.1,0,0.2-0.1,0.2-0.2S18.4,16,18.4,16c-1.1-0.8-2.3-1.6-3.4-2.4c-0.6-0.5-1.2-1-1.8-1.5
			c-0.5-0.4-0.5-1-0.4-1.6c0.1-0.4,0.3-0.9,0.4-1.3c0.3-1.1,0-1.8-1.1-2.2c-1.2-0.4-2-1.3-2.8-2.2C8.5,3.7,7.8,3,7.1,2.2
			C6.7,1.7,6.1,1.3,5.4,1z"/>
		<path d="M22.4,24.8c0.5-0.2,0.8-0.4,1.3-0.6c0,0.4,0,0.8,0,1.2C23.3,25.2,22.9,25,22.4,24.8z"/>
	</g>
</g>
<g id="Layer_3">
	<path class="st2" d="M25.3,18.7c0.9,0,1.4,0,1.4,0s1.5,0,1.6-1s0.3-3-1.2-3.9c-1.6-1-5.8-2.3-6.2-3.5c-0.4-1.3,1.9-8.4,3.2-7.5
		c1.3,0.9,1.9,1.1,3.2,3.9c1.3,2.8,7.6,14.8,7.6,14.8s0.1,2.8-2.8,2.8c0,0-28.7,0-29.5,0S0.5,24,1.7,22.9c1.2-0.8,3-2,2.5-3.1
		c-0.5-1.2-1-2.8-0.8-4.2s2-13.8,2-13.8s0.1-1.1,1.1-0.4s1.8,1.5,3,2.8S12.4,6.7,13,7s1,1.3,0.6,2.8c-0.5,1.5-0.9,1.6,2.9,4.1
		s2.4,2.9,1,2.7s-6.8-1.2-7.8-0.9c-1,0.3-2.5,1.8-2,2.5c0.1,0.2,1.6,0.3,3.8,0.4L25.3,18.7z"/>
</g>
<g id="Layer_2_1_" class="st0">
	<g class="st1">
		<path d="M28,18.4v1.1c-0.1,0-0.3,0.1-0.5,0.1c-1,0-2,0-3,0c-4.5,0-9,0-13.5,0c-0.9,0-1.8-0.2-2.8-0.3v-1c0.1,0,0.2,0,0.3,0
			c1.2,0.1,2.5,0.2,3.7,0.2c5,0,9.9,0,14.9,0C27.6,18.5,27.8,18.5,28,18.4z"/>
	</g>
	<path class="st3" d="M28,18.4v1.1c-0.1,0-0.3,0.1-0.5,0.1c-1,0-2,0-3,0c-4.5,0-9,0-13.5,0c-0.9,0-1.8-0.2-2.8-0.3v-1
		c0.1,0,0.2,0,0.3,0c1.2,0.1,2.5,0.2,3.7,0.2c5,0,9.9,0,14.9,0C27.6,18.5,27.8,18.5,28,18.4z"/>
</g>
</svg>
