<?xml version="1.0" encoding="utf-8"?>
<!-- Generator: Adobe Illustrator 25.0.1, SVG Export Plug-In . SVG Version: 6.00 Build 0)  -->
<svg version="1.1" id="Layer_1" xmlns="http://www.w3.org/2000/svg" xmlns:xlink="http://www.w3.org/1999/xlink" x="0px" y="0px"
	 viewBox="0 0 60 30" style="enable-background:new 0 0 60 30;" xml:space="preserve">
<style type="text/css">
	.st0{fill:#FFFFFF;}
	.st1{fill:none;stroke:#000000;stroke-width:2;stroke-miterlimit:10;}
</style>
<g>
	<rect x="9.9" y="5.5" width="1.7" height="1.7"/>
	<rect x="11.6" y="7.2" width="1.7" height="1.7"/>
	<rect x="11.6" y="5.5" class="st0" width="1.7" height="1.7"/>
	<rect x="9.9" y="7.2" class="st0" width="1.7" height="1.7"/>
	<rect x="9.9" y="8.9" width="1.7" height="1.7"/>
	<rect x="11.6" y="10.7" width="1.7" height="1.7"/>
	<rect x="11.6" y="8.9" class="st0" width="1.7" height="1.7"/>
	<rect x="9.9" y="10.7" class="st0" width="1.7" height="1.7"/>
	<rect x="13.4" y="5.5" width="1.7" height="1.7"/>
	<rect x="15.1" y="7.2" width="1.7" height="1.7"/>
	<rect x="15.1" y="5.5" class="st0" width="1.7" height="1.7"/>
	<rect x="13.4" y="7.2" class="st0" width="1.7" height="1.7"/>
	<rect x="13.4" y="8.9" width="1.7" height="1.7"/>
	<rect x="15.1" y="10.7" width="1.7" height="1.7"/>
	<rect x="15.1" y="8.9" class="st0" width="1.7" height="1.7"/>
	<rect x="13.4" y="10.7" class="st0" width="1.7" height="1.7"/>
	<rect x="16.8" y="5.5" width="1.7" height="1.7"/>
	<rect x="18.6" y="7.2" width="1.7" height="1.7"/>
	<rect x="18.6" y="5.5" class="st0" width="1.7" height="1.7"/>
	<rect x="16.8" y="7.2" class="st0" width="1.7" height="1.7"/>
	<rect x="16.8" y="8.9" width="1.7" height="1.7"/>
	<rect x="18.6" y="10.7" width="1.7" height="1.7"/>
	<rect x="18.6" y="8.9" class="st0" width="1.7" height="1.7"/>
	<rect x="16.8" y="10.7" class="st0" width="1.7" height="1.7"/>
	<rect x="20.3" y="5.5" width="1.7" height="1.7"/>
	<rect x="22.1" y="7.2" width="1.7" height="1.7"/>
	<rect x="22.1" y="5.5" class="st0" width="1.7" height="1.7"/>
	<rect x="20.3" y="7.2" class="st0" width="1.7" height="1.7"/>
	<rect x="20.3" y="8.9" width="1.7" height="1.7"/>
	<rect x="22.1" y="10.7" width="1.7" height="1.7"/>
	<rect x="22.1" y="8.9" class="st0" width="1.7" height="1.7"/>
	<rect x="20.3" y="10.7" class="st0" width="1.7" height="1.7"/>
	<rect x="23.8" y="5.5" width="1.7" height="1.7"/>
	<rect x="25.5" y="7.2" width="1.7" height="1.7"/>
	<rect x="25.5" y="5.5" class="st0" width="1.7" height="1.7"/>
	<rect x="23.8" y="7.2" class="st0" width="1.7" height="1.7"/>
	<rect x="23.8" y="8.9" width="1.7" height="1.7"/>
	<rect x="25.5" y="10.7" width="1.7" height="1.7"/>
	<rect x="25.5" y="8.9" class="st0" width="1.7" height="1.7"/>
	<rect x="23.8" y="10.7" class="st0" width="1.7" height="1.7"/>
	<rect x="27.3" y="5.5" width="1.7" height="1.7"/>
	<rect x="29" y="7.2" width="1.7" height="1.7"/>
	<rect x="29" y="5.5" class="st0" width="1.7" height="1.7"/>
	<rect x="27.3" y="7.2" class="st0" width="1.7" height="1.7"/>
	<rect x="27.3" y="8.9" width="1.7" height="1.7"/>
	<rect x="29" y="10.7" width="1.7" height="1.7"/>
	<rect x="29" y="8.9" class="st0" width="1.7" height="1.7"/>
	<rect x="27.3" y="10.7" class="st0" width="1.7" height="1.7"/>
	<rect x="30.7" y="5.5" width="1.7" height="1.7"/>
	<rect x="32.5" y="7.2" width="1.7" height="1.7"/>
	<rect x="32.5" y="5.5" class="st0" width="1.7" height="1.7"/>
	<rect x="30.7" y="7.2" class="st0" width="1.7" height="1.7"/>
	<rect x="30.7" y="8.9" width="1.7" height="1.7"/>
	<rect x="32.5" y="10.7" width="1.7" height="1.7"/>
	<rect x="32.5" y="8.9" class="st0" width="1.7" height="1.7"/>
	<rect x="30.7" y="10.7" class="st0" width="1.7" height="1.7"/>
	<rect x="34.2" y="5.5" width="1.7" height="1.7"/>
	<rect x="36" y="7.2" width="1.7" height="1.7"/>
	<rect x="36" y="5.5" class="st0" width="1.7" height="1.7"/>
	<rect x="34.2" y="7.2" class="st0" width="1.7" height="1.7"/>
	<rect x="34.2" y="8.9" width="1.7" height="1.7"/>
	<rect x="36" y="10.7" width="1.7" height="1.7"/>
	<rect x="36" y="8.9" class="st0" width="1.7" height="1.7"/>
	<rect x="34.2" y="10.7" class="st0" width="1.7" height="1.7"/>
	<rect x="37.7" y="5.5" width="1.7" height="1.7"/>
	<rect x="39.4" y="7.2" width="1.7" height="1.7"/>
	<rect x="39.4" y="5.5" class="st0" width="1.7" height="1.7"/>
	<rect x="37.7" y="7.2" class="st0" width="1.7" height="1.7"/>
	<rect x="37.7" y="8.9" width="1.7" height="1.7"/>
	<rect x="39.4" y="10.7" width="1.7" height="1.7"/>
	<rect x="39.4" y="8.9" class="st0" width="1.7" height="1.7"/>
	<rect x="37.7" y="10.7" class="st0" width="1.7" height="1.7"/>
	<rect x="41.2" y="5.5" width="1.7" height="1.7"/>
	<rect x="42.9" y="7.2" width="1.7" height="1.7"/>
	<rect x="42.9" y="5.5" class="st0" width="1.7" height="1.7"/>
	<rect x="41.2" y="7.2" class="st0" width="1.7" height="1.7"/>
	<rect x="41.2" y="8.9" width="1.7" height="1.7"/>
	<rect x="42.9" y="10.7" width="1.7" height="1.7"/>
	<rect x="42.9" y="8.9" class="st0" width="1.7" height="1.7"/>
	<rect x="41.2" y="10.7" class="st0" width="1.7" height="1.7"/>
	<rect x="44.6" y="5.5" width="1.7" height="1.7"/>
	<rect x="46.4" y="7.2" width="1.7" height="1.7"/>
	<rect x="46.4" y="5.5" class="st0" width="1.7" height="1.7"/>
	<rect x="44.6" y="7.2" class="st0" width="1.7" height="1.7"/>
	<rect x="44.6" y="8.9" width="1.7" height="1.7"/>
	<rect x="46.4" y="10.7" width="1.7" height="1.7"/>
	<rect x="46.4" y="8.9" class="st0" width="1.7" height="1.7"/>
	<rect x="44.6" y="10.7" class="st0" width="1.7" height="1.7"/>
	<rect x="48.1" y="5.5" width="1.7" height="1.7"/>
	<rect x="49.9" y="7.2" width="1.7" height="1.7"/>
	<rect x="49.9" y="5.5" class="st0" width="1.7" height="1.7"/>
	<rect x="48.1" y="7.2" class="st0" width="1.7" height="1.7"/>
	<rect x="48.1" y="8.9" width="1.7" height="1.7"/>
	<rect x="49.9" y="10.7" width="1.7" height="1.7"/>
	<rect x="49.9" y="8.9" class="st0" width="1.7" height="1.7"/>
	<rect x="48.1" y="10.7" class="st0" width="1.7" height="1.7"/>
</g>
<line class="st1" x1="9.9" y1="5.5" x2="9.9" y2="28.5"/>
<line class="st1" x1="51.6" y1="5.5" x2="51.6" y2="28.5"/>
</svg>
