<?xml version="1.0" encoding="utf-8"?>
<!-- Generator: Adobe Illustrator 25.0.1, SVG Export Plug-In . SVG Version: 6.00 Build 0)  -->
<svg version="1.1" id="Layer_2_1_" xmlns="http://www.w3.org/2000/svg" xmlns:xlink="http://www.w3.org/1999/xlink" x="0px" y="0px"
	 viewBox="0 0 36.3 25.6" style="enable-background:new 0 0 36.3 25.6;" xml:space="preserve">
<style type="text/css">
	.st0{fill:none;stroke:#FE0000;stroke-miterlimit:10;}
	.st1{fill:none;stroke:#01A6D5;stroke-miterlimit:10;}
	.st2{fill:none;stroke:#FFD500;stroke-miterlimit:10;}
</style>
<path class="st0" d="M5.2,16.5c0.2-0.1,0.4-0.3,0.6-0.5c0.7-0.7,0.6-0.8,0.4-1.4c-0.2-0.7,0-1,0-1s1.6-4.6,2-5.8C8.6,6.6,9,6.5,10,6
	s0.5-1.1,1.1-1.5c0.6-0.4,3.8-0.7,5.1-0.9c1.3-0.2,5.1,0.6,5.6,0.7C22.3,4.4,26,4.2,26,4.2c0.1,0,0.1,0,0.2,0"/>
<path class="st1" d="M4.9,16.8C4.7,16.9,4.6,17,4.6,17s-3.5,2.7,0.1,2.1s4.1-1,6.4-0.6s2.3,0.3,2.5-0.1c0.2-0.4,1.1-1.9,0.8-3.2
	c-0.3-1.3-0.9-2.7-0.7-3.2s0.7-1.1,0.7-1.1s0.2-0.5,0.8-0.2c0.6,0.3,0.5,0.2,1.4,0.2c0.9,0,2.7-0.1,3.1-0.1"/>
<path class="st2" d="M26.6,4.2c1.1,0,1.5-0.2,1.5-0.2s0.1-0.1,0.3-0.1c0.7-0.4,2.2-1,3.1-1.4c1.2-0.5,1.3-0.1,1.3-0.1
	s0.5,0.8,0.8,1.3c0.3,0.5-0.2,0.7-0.2,0.7s-0.9,0.5-1.9,0.9c-1,0.4-2.3,2.1-3.2,3c-0.9,0.9-1,0.8-1.4,1.2s-2.7,1.4-3,1.5
	c-0.2,0.1-0.6,0.4-0.7,0c0-0.4-0.4-0.3-0.4-0.3l-2.7,0.1"/>
</svg>
