<?xml version="1.0" encoding="utf-8"?>
<!-- Generator: Adobe Illustrator 25.0.1, SVG Export Plug-In . SVG Version: 6.00 Build 0)  -->
<svg version="1.1" id="Layer_2_1_" xmlns="http://www.w3.org/2000/svg" xmlns:xlink="http://www.w3.org/1999/xlink" x="0px" y="0px"
	 viewBox="0 0 36.3 25.6" style="enable-background:new 0 0 36.3 25.6;" xml:space="preserve">
<style type="text/css">
	.st0{fill:none;stroke:#000000;stroke-miterlimit:10;}
</style>
<path class="st0" d="M26,4.2c0,0-3.7,0.2-4.2,0.1s-4.3-0.9-5.6-0.7s-4.5,0.5-5.1,0.9s-0.1,1-1.1,1.5S8.6,6.6,8.2,7.8
	c-0.4,1.2-2,5.8-2,5.8s-0.2,0.3,0,1c0.2,0.6,0.3,0.7-0.4,1.4S4.6,17,4.6,17s-3.5,2.7,0.1,2.1c3.6-0.6,4.1-1,6.4-0.6
	c2.3,0.4,2.3,0.3,2.5-0.1c0.2-0.4,1.1-1.9,0.8-3.2c-0.3-1.3-0.9-2.7-0.7-3.2c0.2-0.5,0.7-1.1,0.7-1.1s0.2-0.5,0.8-0.2
	c0.6,0.3,0.5,0.2,1.4,0.2c1,0,3.2-0.1,3.2-0.1l3-0.1c0,0,0.4-0.1,0.4,0.3c0.1,0.4,0.5,0.1,0.7,0c0.3-0.1,2.6-1.1,3-1.5
	s0.5-0.3,1.4-1.2c0.9-0.9,2.2-2.6,3.2-3c1-0.4,1.9-0.9,1.9-0.9s0.5-0.2,0.2-0.7s-0.8-1.3-0.8-1.3s-0.1-0.4-1.3,0.1
	c-0.9,0.4-2.4,1-3.1,1.4C28.2,3.9,28.1,4,28.1,4S27.6,4.2,26,4.2z"/>
</svg>
