<?xml version="1.0" encoding="utf-8"?>
<!-- Generator: Adobe Illustrator 25.0.1, SVG Export Plug-In . SVG Version: 6.00 Build 0)  -->
<svg version="1.1" id="Layer_2" xmlns="http://www.w3.org/2000/svg" xmlns:xlink="http://www.w3.org/1999/xlink" x="0px" y="0px"
	 viewBox="0 0 36.3 25.6" style="enable-background:new 0 0 36.3 25.6;" xml:space="preserve">
<style type="text/css">
	.st0{fill:none;stroke:#01A6D5;stroke-miterlimit:10;}
	.st1{fill:none;stroke:#FE0000;stroke-miterlimit:10;}
	.st2{fill:none;stroke:#FFD500;stroke-miterlimit:10;}
</style>
<path class="st0" d="M30.4,8.1c0.2,0,1.4-0.2,1.5,0.3c0.1,0.6-0.4,1-0.5,1.2c-0.2,0.3-0.6,1-0.7,1.2c-0.1,0.2-0.2,0.5,0.4,0.8
	c0.6,0.2,0.7-0.4,0.9-0.7c0.2-0.4,0.4-1.8,1.3-0.8c0.9,1,1.2,0.4-0.1,1.4c-1.3,1-2.9,3.2-6.2,3.6c-3.4,0.4-9-3.7-9-3.7
	s-0.4-0.3-0.5,0c-0.2,0.2-0.8,0.2-0.8-0.3s-0.2-0.5-0.6-0.8c-0.3-0.3-4.4-3.1-4.4-3.1s-0.3-0.2-1.1,0c-0.2,0-0.3,0.1-0.5,0.2"/>
<path class="st1" d="M5.5,9.9c0.3-0.4,0.6-0.8,0.9-1.2C7,8.1,7.7,7.3,8.3,6.9C9.5,6.1,9.8,6.2,10.1,6c0.3-0.3,0.7-1,1.3-0.3
	c0.6,0.6,3.6,2.6,4.3,3c0.7,0.4,1.1,0.9,2.4,1.4c1.2,0.5,1.7,0.6,2.7,1.4c1,0.9,1.9,1.2,2.9,1c1-0.1,1.3-0.9,1.4-2.3
	c0.1-1.4,0.5-1.4,1.5-1.6c0.7-0.1,2.5-0.4,3.2-0.4"/>
<path class="st2" d="M5.2,10.2c-0.3,0.5-0.7,1.1-0.9,1.6C3.2,14,2.7,15.7,2.6,16c-0.1,0.5-0.3,0.1-0.4,0.6c-0.1,0.5,1.6,1.8,1.9,1.4
	c0.3-0.4,0.1-0.7,0.1-0.7S4,16.9,3.9,16.1c0-0.8,0.5-2.2,0.9-2.8c0.3-0.5,0.5-0.3,0.8-0.2C5.9,13.3,6.1,13,6.1,13s1.1-1.8,1.4-2.2
	C7.8,10.5,8,10.4,8,9.8c0-0.6-0.1-0.5,0.4-1.2c0.3-0.5,0.8-0.8,1.2-1"/>
</svg>
