<?xml version="1.0" encoding="utf-8"?>
<!-- Generator: Adobe Illustrator 25.0.1, SVG Export Plug-In . SVG Version: 6.00 Build 0)  -->
<svg version="1.1" id="Layer_2_1_" xmlns="http://www.w3.org/2000/svg" xmlns:xlink="http://www.w3.org/1999/xlink" x="0px" y="0px"
	 viewBox="0 0 36.3 25.6" style="enable-background:new 0 0 36.3 25.6;" xml:space="preserve">
<style type="text/css">
	.st0{fill:none;stroke:#5BBA47;stroke-width:1.25;stroke-miterlimit:10;}
</style>
<path class="st0" d="M22.4,11.8c-0.2,0-0.3,0.1-0.6,0.1c-1.2,0.1-2.4,1-2.7,1.4c-0.3,0.3-0.8,1.2-1.5,1.7c-0.1,0.1-0.2,0.1-0.4,0.2"
	/>
<path class="st0" d="M23,11.2"/>
<path class="st0" d="M32.9,3.5c0,0.2-0.1,0.3-0.2,0.6c-0.4,1.3-1.1,3.1-2.2,4.1c-1.2,0.9-2,1.9-3.7,1.8c-0.5,0-0.9-0.1-1.3-0.1"/>
<path class="st0" d="M21.7,9.8c0,0,0.2-0.2,0.5-0.4c1.2-1.1,4.4-3.7,5.4-4.5c0.8-0.6,2.5-1.4,3.7-1.8"/>
</svg>
