<?xml version="1.0" encoding="utf-8"?>
<!-- Generator: Adobe Illustrator 25.0.1, SVG Export Plug-In . SVG Version: 6.00 Build 0)  -->
<svg version="1.1" id="Layer_2" xmlns="http://www.w3.org/2000/svg" xmlns:xlink="http://www.w3.org/1999/xlink" x="0px" y="0px"
	 viewBox="0 0 36.3 25.6" style="enable-background:new 0 0 36.3 25.6;" xml:space="preserve">
<style type="text/css">
	.st0{fill:none;stroke:#FFD500;stroke-miterlimit:10;}
	.st1{fill:none;stroke:#01A6D5;stroke-miterlimit:10;}
	.st2{fill:none;stroke:#FE0000;stroke-miterlimit:10;}
</style>
<path class="st0" d="M20.9,12.1c0.3-0.1,0.5-0.2,0.8-0.2c1.2-0.2,1.1-0.3,1.2-0.7c0.1-0.4,0.2-0.6,0.9-1.1s1.2-0.2,2.9-0.1
	c1.7,0.1,2.6-0.8,3.7-1.8c1.2-0.9,1.9-2.8,2.2-4.1c0.3-1.3,0-1.2-0.1-1.4c-0.2-0.2-3.6,1.3-5,2.2c-0.4,0.3-1.1,0.8-1.9,1.5"/>
<path class="st1" d="M6.3,16.9c-1,0.7-2.2,1.5-2.5,1.6c-0.5,0.2-0.6,1.4,0.4,1.4S5.4,19,6,18.5c0.5-0.6,1.2-0.7,1.7-0.9
	c0.5-0.1,1.2,0.2,2.1,0c0.9-0.3,0.7-0.1,1.2,0.3s0.8,0.4,1.5,0.1c0.8-0.2,0.9-0.4,2-1.5s1.5-0.9,2.5-1.4s1.6-1.5,1.9-1.9
	c0.2-0.3,0.8-0.7,1.6-1.1"/>
<path class="st2" d="M6.6,16.6c0.6-0.4,1-0.6,1.1-0.7c0.3-0.1,0.7-0.2,1.2-0.2s1.5-0.4,1.9-0.1c0.3,0.3,0.6,0.8,1.2,0.6
	c0.7-0.2,1.2-0.1,1.4-0.8c0.2-0.6,0.1-0.7,0.6-1.1c0.5-0.4,0.8-0.3,1.4-0.2c0.6,0.1,1.5-0.4,1.5-1c0-0.5-0.1-0.6,0.6-0.9
	c0.7-0.3,1.7-1,2.1-1.2c0.4-0.2,0.8-0.4,1.4-0.4c0.6,0,1-0.1,1-0.3c0-0.2-0.5-0.5-0.3-0.7c0,0,2-1.8,3.8-3.2"/>
</svg>
