<?xml version="1.0" encoding="utf-8"?>
<!-- Generator: Adobe Illustrator 25.0.1, SVG Export Plug-In . SVG Version: 6.00 Build 0)  -->
<svg version="1.1" id="Layer_3" xmlns="http://www.w3.org/2000/svg" xmlns:xlink="http://www.w3.org/1999/xlink" x="0px" y="0px"
	 viewBox="0 0 36.3 25.6" style="enable-background:new 0 0 36.3 25.6;" xml:space="preserve">
<style type="text/css">
	.st0{fill:none;stroke:#000000;stroke-miterlimit:10;}
</style>
<path class="st0" d="M25.9,16.4H7.2c0,0-1.2,0.2-1.3-1s0-1.6-1-2.1c-0.9-0.4-3.4-0.8-3.4-3.2s3.1-3.5,4.3-3.5s4.6,0,4.6,0h1.4
	c0,0,1.1,0.1,1.2,1.2c0,1.1-1,2.2-2.2,2.3c-1.2,0-4.6,0-4.6,0s-0.9,0.1-0.9,0.8c0,0.7,1,1.2,1.8,1.7s1,0.7,2,1.2s1.4,0.5,2.4,0.5
	s2,0,2,0s0.9,0,0.9-1.1s0.1-1.4,0.5-1.9s2.5-3.6,2.5-3.6s0.9-1.1,2.3-0.4c1.5,0.6,9.3,5.4,9.3,5.4l1.5,0.9c0,0,0.6,0.2,1-0.2
	c0.3-0.4,0.3-1.1-0.1-1.9S30,10.3,29.2,10s-1.1-1.1-0.9-1.8c0.2-0.7,0.7-1.2,2-0.8s3,1,3,1s0.5,0.1,0.5,0.6c0,0.6-0.2,2.4-0.2,2.4
	s-0.1,0.5,0.3,0.6s0.8,0.1,0.8,0.5s0,1.9,0,1.9s-0.3,2.1-2.2,2.1S25.9,16.4,25.9,16.4z"/>
</svg>
