<?xml version="1.0" encoding="utf-8"?>
<!-- Generator: Adobe Illustrator 25.0.1, SVG Export Plug-In . SVG Version: 6.00 Build 0)  -->
<svg version="1.1" id="Layer_3" xmlns="http://www.w3.org/2000/svg" xmlns:xlink="http://www.w3.org/1999/xlink" x="0px" y="0px"
	 viewBox="0 0 36.3 25.6" style="enable-background:new 0 0 36.3 25.6;" xml:space="preserve">
<style type="text/css">
	.st0{fill:none;stroke:#01A6D5;stroke-miterlimit:10;}
	.st1{fill:none;stroke:#FE0000;stroke-miterlimit:10;}
	.st2{fill:none;stroke:#FFD500;stroke-miterlimit:10;}
</style>
<path class="st0" d="M10.5,6.6h1.3c0,0,1.1,0.1,1.2,1.2c0,1.1-1,2.2-2.2,2.3s-4.6,0-4.6,0s-0.9,0.1-0.9,0.8c0,0.7,1,1.2,1.8,1.7
	s1,0.7,2,1.2s1.4,0.5,2.4,0.5s2,0,2,0s0.9-0.1,0.9-1.2s0.1-1.4,0.5-1.9s2.5-3.6,2.5-3.6s0.9-1.1,2.3-0.4c1.1,0.5,5.9,3.4,8.1,4.7"/>
<path class="st1" d="M10,6.6c-1,0-3.3,0-4.2,0c-1.1,0-4.3,1.1-4.3,3.5S4,12.9,5,13.3c1,0.4,0.9,0.9,1,2.1c0.1,1.1,1.3,1,1.3,1h19.1"
	/>
<path class="st2" d="M28.4,12.3c0.4,0.2,0.6,0.4,0.6,0.4l1.5,0.9c0,0,0.6,0.2,1-0.2c0.3-0.4,0.3-1.1-0.1-1.9
	c-0.5-0.9-1.4-1.2-2.2-1.5s-1.1-1.2-0.9-1.8c0.2-0.7,0.7-1.2,2-0.8s3,1,3,1s0.5,0.1,0.5,0.6c0,0.6-0.2,2.4-0.2,2.4s-0.1,0.5,0.3,0.6
	c0.3,0,0.8,0,0.8,0.4s0,1.9,0,1.9s-0.3,2.1-2.2,2.1c-1.4,0-4.1,0-5.6,0"/>
</svg>
