<?xml version="1.0" encoding="utf-8"?>
<!-- Generator: Adobe Illustrator 25.0.1, SVG Export Plug-In . SVG Version: 6.00 Build 0)  -->
<svg version="1.1" id="Layer_2_1_" xmlns="http://www.w3.org/2000/svg" xmlns:xlink="http://www.w3.org/1999/xlink" x="0px" y="0px"
	 viewBox="0 0 36.3 25.6" style="enable-background:new 0 0 36.3 25.6;" xml:space="preserve">
<style type="text/css">
	.st0{fill:none;stroke:#000000;stroke-miterlimit:10;}
</style>
<path class="st0" d="M16.9,6.6L21.2,9c0,0,1.1,0.6,0.2,1.2c-0.9,0.6-0.4,0-0.4,1.2s-0.8,1.4-2.2,1.7c-1.4,0.3-2.3,0.4-4-0.6
	s-3.7-1.9-3.7-1.9s-0.9-0.5-1.8,0s-1.6,1.2-2.4,0.8c-0.8-0.4-1.4-1.1-1.4-1.1s-0.6-0.5-1.9-0.1c-1.3,0.4-1.6,1.4-1.6,1.8
	c0.1,0.4,0,0.8,1,0.9s1.1-0.2,2.2,0.1s1.4,0.5,3.8,0.5c2.4,0,4.6,0.1,4.6,0.1s0.6-0.1,2,0.5c1.4,0.6,2.4,0.7,3.2,0.8
	c0.8,0.1,1.5,0.1,3-0.1s7.1-2.4,8.5-3c1.4-0.6,2.2-1.2,2.2-1.2s0.5-0.3-0.5-0.8c-1-0.5-1.1-1-0.8-1.6c0.2-0.6,1.6-0.4,1.6-0.4
	s0.8,0,1.1-0.6c0.3-0.6,0.4-0.7,0.4-0.7s0-0.1-0.2-0.3c-0.2-0.1-0.3-0.2-0.2-0.5c0.1-0.4,0.3-1.2,0.3-1.2s0.1-0.4-0.5-0.4
	c-0.6,0-1.4,0-1.4,0L6.4,3c0,0-0.5-0.1-0.6,0.4c0,0.4,1.7,1.4,1.7,1.4s0.4,0.2,0.8,0.2c0.5,0,0.4,0.3,0.7,0.1
	c0.3-0.2,1.3-0.6,2.4-0.6s1.6,0.1,2.6,0.6S16.9,6.6,16.9,6.6z"/>
</svg>
