<?xml version="1.0" encoding="utf-8"?>
<!-- Generator: Adobe Illustrator 25.0.1, SVG Export Plug-In . SVG Version: 6.00 Build 0)  -->
<svg version="1.1" id="Layer_2_1_" xmlns="http://www.w3.org/2000/svg" xmlns:xlink="http://www.w3.org/1999/xlink" x="0px" y="0px"
	 viewBox="0 0 36.3 25.6" style="enable-background:new 0 0 36.3 25.6;" xml:space="preserve">
<style type="text/css">
	.st0{fill:none;stroke:#FFD500;stroke-miterlimit:10;}
	.st1{fill:none;stroke:#01A6D5;stroke-miterlimit:10;}
	.st2{fill:none;stroke:#FE0000;stroke-miterlimit:10;}
</style>
<path class="st0" d="M15.6,5.9c-0.5-0.3-1.1-0.6-1.5-0.8c-1-0.6-1.5-0.6-2.6-0.6S9.4,4.9,9.1,5.1C8.8,5.2,8.8,4.9,8.3,4.9
	S7.5,4.7,7.5,4.7S5.8,3.8,5.8,3.4C5.8,2.9,6.4,3,6.4,3l25.4,1"/>
<path class="st1" d="M32.3,4.1c0.2,0,0.9,0,1.3,0c0.6,0,0.5,0.4,0.5,0.4s-0.2,0.8-0.3,1.2c-0.1,0.4,0,0.4,0.2,0.5s0.2,0.3,0.2,0.3
	s0,0.1-0.4,0.7c-0.3,0.6-1.1,0.6-1.1,0.6s-1.4-0.2-1.6,0.4S31,9.3,31.9,9.8c1,0.5,0.5,0.8,0.5,0.8s-0.8,0.6-2.2,1.2
	c-1.4,0.6-7,2.8-8.5,3s-2.2,0.2-3,0.1c-0.8-0.1-1.8-0.2-3.2-0.8s-2-0.5-2-0.5s-2.2-0.1-4.6-0.1c-2.3,0-2.7-0.2-3.7-0.5"/>
<path class="st2" d="M16,6.1c0.5,0.2,0.9,0.4,0.9,0.4L21.2,9c0,0,1.1,0.6,0.2,1.2c-0.9,0.6-0.4,0-0.4,1.2s-0.8,1.4-2.2,1.7
	c-1.4,0.3-2.3,0.4-4-0.6s-3.7-1.9-3.7-1.9s-0.9-0.5-1.8,0c-0.9,0.5-1.6,1.2-2.4,0.8s-1.4-1.1-1.4-1.1s-0.6-0.5-1.9-0.1
	S2,11.6,2,12.1c0.1,0.4,0,0.8,1,0.9c0.8,0.1,1-0.2,1.8,0"/>
</svg>
